<?xml version="1.0" standalone="no"?>
<!DOCTYPE svg PUBLIC "-//W3C//DTD SVG 20010904//EN"
 "http://www.w3.org/TR/2001/REC-SVG-20010904/DTD/svg10.dtd">
<svg version="1.0" xmlns="http://www.w3.org/2000/svg"
 width="1080.000000pt" height="720.000000pt" viewBox="0 0 1080.000000 720.000000"
 preserveAspectRatio="xMidYMid meet">

<g transform="translate(0.000000,720.000000) scale(0.100000,-0.100000)"
fill="#000000" stroke="none">
<path d="M6101 4221 c-50 -23 -94 -50 -108 -67 -33 -41 -324 -560 -638 -1139
-87 -159 -171 -305 -189 -323 -37 -40 -138 -108 -223 -151 -174 -87 -445 -121
-528 -67 -52 34 -67 72 -62 163 3 70 9 93 42 159 85 174 380 414 506 414 52 0
51 -20 -2 -102 -44 -68 -46 -98 -7 -130 59 -51 153 6 223 134 55 101 52 172
-9 226 -115 101 -414 31 -640 -151 -235 -189 -372 -511 -302 -715 35 -102 153
-191 282 -212 110 -18 293 20 476 100 51 23 99 44 106 47 10 4 12 -2 7 -28
-10 -53 19 -83 95 -99 33 -7 62 -11 64 -9 2 2 51 98 108 213 l105 209 41 -77
c92 -171 183 -278 280 -330 69 -36 160 -39 242 -8 63 25 199 129 260 200 48
56 62 99 53 169 -10 93 -20 90 -146 -39 -119 -122 -173 -158 -234 -158 -74 0
-153 85 -214 229 l-28 65 47 26 c191 104 389 280 474 421 45 74 55 117 39 171
-16 51 -64 75 -116 58 -43 -14 -62 -36 -71 -85 -5 -28 -22 -55 -58 -94 -118
-126 -456 -368 -456 -326 0 3 137 251 304 552 408 737 414 748 400 770 -16 27
-31 25 -123 -16z"/>
<path d="M2440 4243 c-288 -20 -649 -140 -915 -303 -365 -223 -459 -531 -214
-702 76 -53 180 -91 420 -154 351 -91 449 -137 449 -207 0 -26 -12 -43 -63
-92 -111 -106 -318 -198 -547 -245 -195 -40 -449 -16 -534 51 -24 19 -27 27
-21 55 7 41 -6 44 -64 14 -161 -82 -111 -292 86 -362 168 -59 558 -34 821 51
254 83 482 242 551 383 69 144 35 289 -93 390 -82 65 -255 142 -421 188 -363
101 -445 140 -445 212 0 27 12 44 73 103 168 164 484 328 731 379 70 15 176
22 176 11 0 -2 -11 -21 -25 -41 -17 -25 -23 -44 -19 -58 4 -12 7 -22 8 -22 5
-5 320 27 356 36 62 16 119 50 135 80 7 14 16 46 20 72 7 44 5 50 -22 77 -19
18 -56 37 -98 50 -66 21 -221 42 -275 39 -14 -1 -45 -3 -70 -5z"/>
<path d="M3371 3971 c-25 -28 -73 -90 -106 -139 l-60 -90 -155 -7 c-167 -8
-207 -18 -268 -69 -18 -16 -44 -48 -58 -72 -25 -43 -26 -46 -9 -64 27 -29 77
-34 208 -21 66 7 121 10 124 8 2 -3 -18 -40 -45 -84 -79 -126 -238 -405 -292
-512 -118 -236 -161 -385 -140 -485 16 -76 45 -115 113 -150 109 -56 215 -37
355 64 46 33 85 60 86 60 2 0 9 -14 16 -30 20 -48 85 -98 145 -110 139 -29
348 72 530 255 244 245 408 544 375 688 -13 59 -59 97 -119 97 -35 0 -51 6
-72 26 -105 101 -356 3 -589 -228 -132 -132 -225 -281 -271 -437 -10 -35 -27
-55 -77 -96 -117 -97 -232 -141 -270 -103 -26 26 -14 116 29 217 57 135 229
450 390 717 l80 131 142 12 c190 17 251 26 281 46 37 25 32 53 -18 108 l-44
47 -105 0 -106 0 70 112 c38 62 68 117 66 122 -7 21 -52 36 -106 36 -53 0 -56
-2 -100 -49z m515 -787 c4 -17 19 -31 42 -41 32 -13 34 -17 29 -48 -13 -77
-118 -253 -237 -393 -149 -177 -349 -290 -397 -226 -20 26 -12 122 17 196 70
186 306 439 482 517 56 25 57 25 64 -5z"/>
</g>
</svg>
